<svg xmlns="http://www.w3.org/2000/svg" width="390" height="844" viewBox="0 0 390 844">
  <defs><filter id="s" x="-20%" y="-20%" width="140%" height="140%"><feDropShadow dx="0" dy="7" stdDeviation="12" flood-color="#17345F" flood-opacity=".09"/></filter></defs>
  <rect width="390" height="844" rx="32" fill="#F4F7FB"/><rect width="390" height="94" rx="32" fill="#FFFFFF"/><rect y="62" width="390" height="32" fill="#FFFFFF"/>
  <text x="24" y="61" font-size="23" fill="#1B2B45">‹</text><text x="58" y="58" font-family="Arial,'Microsoft YaHei'" font-size="18" font-weight="700" fill="#142540">号码与运营商</text>
  <text x="24" y="132" font-family="Arial,'Microsoft YaHei'" font-size="27" font-weight="700" fill="#10213D">输入孟加拉手机号</text><text x="24" y="160" font-family="Arial,'Microsoft YaHei'" font-size="13" fill="#75839A">系统会识别当前运营商与可售商品</text>
  <rect x="20" y="184" width="350" height="182" rx="22" fill="#FFFFFF" filter="url(#s)"/><text x="40" y="220" font-family="Arial,'Microsoft YaHei'" font-size="13" fill="#6F7E92">手机号码</text>
  <rect x="40" y="236" width="88" height="54" rx="14" fill="#F2F6FC" stroke="#DDE4ED"/><text x="84" y="269" text-anchor="middle" font-family="Arial" font-size="16" font-weight="700" fill="#142540">+880</text>
  <rect x="138" y="236" width="192" height="54" rx="14" fill="#FFFFFF" stroke="#195BB8" stroke-width="2"/><text x="154" y="269" font-family="Arial" font-size="18" font-weight="700" fill="#142540">1712 345678</text>
  <text x="40" y="318" font-family="Arial,'Microsoft YaHei'" font-size="12" fill="#75839A">请输入不含国家区号的10位号码</text><circle cx="48" cy="342" r="5" fill="#19865D"/><text x="62" y="347" font-family="Arial,'Microsoft YaHei'" font-size="12" font-weight="700" fill="#19865D">号码格式有效</text>
  <rect x="20" y="386" width="350" height="174" rx="22" fill="#FFFFFF" filter="url(#s)"/><text x="40" y="422" font-family="Arial,'Microsoft YaHei'" font-size="17" font-weight="700" fill="#142540">识别结果</text>
  <circle cx="62" cy="472" r="28" fill="#EAF2FF"/><text x="62" y="480" text-anchor="middle" font-size="25">📶</text><text x="104" y="466" font-family="Arial,'Microsoft YaHei'" font-size="20" font-weight="700" fill="#142540">Grameenphone</text><text x="104" y="491" font-family="Arial,'Microsoft YaHei'" font-size="12" fill="#75839A">孟加拉 · 当前可售运营商</text>
  <rect x="40" y="514" width="92" height="28" rx="14" fill="#EAF6F2"/><text x="86" y="533" text-anchor="middle" font-family="Arial,'Microsoft YaHei'" font-size="12" font-weight="700" fill="#19865D">支持充值</text><rect x="140" y="514" width="104" height="28" rx="14" fill="#EAF2FF"/><text x="192" y="533" text-anchor="middle" font-family="Arial,'Microsoft YaHei'" font-size="12" font-weight="700" fill="#195BB8">商品可查询</text>
  <rect x="20" y="580" width="350" height="92" rx="18" fill="#FFF8E8"/><circle cx="46" cy="614" r="13" fill="#F2C15C"/><text x="46" y="619" text-anchor="middle" font-size="12">i</text><text x="68" y="610" font-family="Arial,'Microsoft YaHei'" font-size="13" font-weight="700" fill="#5E4B24">请确认充值号码</text><text x="68" y="634" font-family="Arial,'Microsoft YaHei'" font-size="12" fill="#806E49">充值提交后无法更改接收号码</text>
  <rect x="20" y="724" width="350" height="58" rx="18" fill="#195BB8"/><text x="195" y="760" text-anchor="middle" font-family="Arial,'Microsoft YaHei'" font-size="17" font-weight="700" fill="#FFFFFF">下一步</text><text x="195" y="814" text-anchor="middle" font-family="Arial,'Microsoft YaHei'" font-size="11" fill="#8793A4">仅展示当前可售运营商，不显示供应商名称</text>
</svg>
