<svg xmlns="http://www.w3.org/2000/svg" width="390" height="844" viewBox="0 0 390 844">
  <defs><filter id="s" x="-20%" y="-20%" width="140%" height="140%"><feDropShadow dx="0" dy="8" stdDeviation="14" flood-color="#17345F" flood-opacity=".10"/></filter></defs>
  <rect width="390" height="844" rx="32" fill="#F4F7FB"/><rect width="390" height="94" rx="32" fill="#FFFFFF"/><rect y="62" width="390" height="32" fill="#FFFFFF"/><text x="24" y="61" font-size="23" fill="#1B2B45">‹</text><text x="58" y="58" font-family="Arial,'Microsoft YaHei'" font-size="18" font-weight="700" fill="#142540">支付结果</text>
  <circle cx="195" cy="168" r="50" fill="#EAF2FF"/><circle cx="195" cy="168" r="36" fill="#195BB8"/><text x="195" y="179" text-anchor="middle" font-size="30" fill="#FFFFFF">✓</text>
<text x="195" y="247" text-anchor="middle" font-family="Arial,'Microsoft YaHei'" font-size="25" font-weight="700" fill="#142540">支付已确认</text><text x="195" y="278" text-anchor="middle" font-family="Arial,'Microsoft YaHei'" font-size="14" fill="#69778D">微信权威结果核验后，仅提交一次充值</text>
<rect x="20" y="310" width="350" height="126" rx="22" fill="#FFFFFF" filter="url(#s)"/><text x="40" y="340" font-family="Arial,'Microsoft YaHei'" font-size="12" fill="#7A8799">订单号 HZ202608180001</text><text x="40" y="367" font-family="Arial,'Microsoft YaHei'" font-size="12" fill="#7A8799">订单金额</text><text x="40" y="397" font-family="Arial" font-size="25" font-weight="700" fill="#E06B2D">¥ 7.90</text><text x="40" y="423" font-family="Arial" font-size="13" fill="#263852">017 **** 5678 · Grameenphone</text><rect x="283" y="347" width="66" height="28" rx="14" fill="#EAF6F2"/><text x="316" y="366" text-anchor="middle" font-family="Arial,'Microsoft YaHei'" font-size="12" font-weight="700" fill="#19865D">已支付</text>
  <rect x="20" y="454" width="350" height="202" rx="22" fill="#FFFFFF"/><text x="40" y="489" font-family="Arial,'Microsoft YaHei'" font-size="17" font-weight="700" fill="#142540">处理进度</text>
  <line x1="59" y1="528" x2="59" y2="611" stroke="#D7E0EC" stroke-width="3"/><circle cx="59" cy="526" r="10" fill="#19865D"/><text x="85" y="531" font-family="Arial,'Microsoft YaHei'" font-size="14" font-weight="700" fill="#223550">微信支付成功</text><text x="85" y="551" font-family="Arial,'Microsoft YaHei'" font-size="11" fill="#8090A4">支付结果已由微信确认</text>
<circle cx="59" cy="578" r="10" fill="#195BB8"/><circle cx="59" cy="578" r="4" fill="#FFFFFF"/><text x="85" y="583" font-family="Arial,'Microsoft YaHei'" font-size="14" font-weight="700" fill="#223550">充值处理中</text><text x="85" y="603" font-family="Arial,'Microsoft YaHei'" font-size="11" fill="#8090A4">只查询原交易，不会重复提交</text>
  <circle cx="59" cy="628" r="10" fill="#E4EAF2"/><text x="85" y="633" font-family="Arial,'Microsoft YaHei'" font-size="14" fill="#8490A2">充值完成</text>
  <rect x="20" y="674" width="350" height="62" rx="18" fill="#EAF2FF"/><text x="40" y="700" font-family="Arial,'Microsoft YaHei'" font-size="12" font-weight="700" fill="#195BB8">可以离开此页面</text><text x="40" y="721" font-family="Arial,'Microsoft YaHei'" font-size="11" fill="#5F7190">结果会保存在“我的－订单”中</text>
  <rect x="20" y="754" width="350" height="56" rx="18" fill="#195BB8"/><text x="195" y="789" text-anchor="middle" font-family="Arial,'Microsoft YaHei'" font-size="17" font-weight="700" fill="#FFFFFF">查看充值进度</text>
</svg>
