<svg xmlns="http://www.w3.org/2000/svg" width="390" height="844" viewBox="0 0 390 844">
  <defs><filter id="s" x="-20%" y="-20%" width="140%" height="140%"><feDropShadow dx="0" dy="8" stdDeviation="14" flood-color="#17345F" flood-opacity=".10"/></filter></defs>
  <rect width="390" height="844" rx="32" fill="#F4F7FB"/><rect width="390" height="94" rx="32" fill="#FFFFFF"/><rect y="62" width="390" height="32" fill="#FFFFFF"/><text x="24" y="61" font-size="23" fill="#1B2B45">‹</text><text x="58" y="58" font-family="Arial,'Microsoft YaHei'" font-size="18" font-weight="700" fill="#142540">异常与退款进度</text>
  <circle cx="195" cy="158" r="48" fill="#FFF3D8"/><text x="195" y="170" text-anchor="middle" font-size="34" font-weight="700" fill="#936211">!</text><text x="195" y="232" text-anchor="middle" font-family="Arial,'Microsoft YaHei'" font-size="25" font-weight="700" fill="#142540">正在核对交易结果</text><text x="195" y="261" text-anchor="middle" font-family="Arial,'Microsoft YaHei'" font-size="14" fill="#69778D">支付已确认，充值结果暂时未知</text>
<rect x="20" y="292" width="350" height="138" rx="22" fill="#FFFFFF" filter="url(#s)"/><text x="40" y="328" font-family="Arial" font-size="13" fill="#7A8799">订单 HZ202608180001</text><text x="40" y="363" font-family="Arial,'Microsoft YaHei'" font-size="16" font-weight="700" fill="#142540">30 天 10GB 流量包</text><text x="40" y="394" font-family="Arial,'Microsoft YaHei'" font-size="13" fill="#68768C">支付</text><text x="348" y="394" text-anchor="end" font-family="Arial,'Microsoft YaHei'" font-size="13" font-weight="700" fill="#19865D">已确认 ¥32.80</text>
  <rect x="20" y="448" width="350" height="214" rx="22" fill="#FFFFFF"/><text x="40" y="484" font-family="Arial,'Microsoft YaHei'" font-size="17" font-weight="700" fill="#142540">系统下一步</text>
  <circle cx="50" cy="524" r="15" fill="#EAF2FF"/><text x="50" y="530" text-anchor="middle" font-size="13" fill="#195BB8">1</text><text x="78" y="522" font-family="Arial,'Microsoft YaHei'" font-size="14" font-weight="700" fill="#243650">继续查询原充值交易</text><text x="78" y="543" font-family="Arial,'Microsoft YaHei'" font-size="11" fill="#75839A">不会创建第二次充值</text>
  <circle cx="50" cy="581" r="15" fill="#EAF2FF"/><text x="50" y="587" text-anchor="middle" font-size="13" fill="#195BB8">2</text><text x="78" y="579" font-family="Arial,'Microsoft YaHei'" font-size="14" font-weight="700" fill="#243650">等待权威结果</text><text x="78" y="600" font-family="Arial,'Microsoft YaHei'" font-size="11" fill="#75839A">不会因未知状态自动退款</text>
  <circle cx="50" cy="638" r="15" fill="#FFF3D8"/><text x="50" y="644" text-anchor="middle" font-size="13" fill="#936211">3</text><text x="78" y="636" font-family="Arial,'Microsoft YaHei'" font-size="14" font-weight="700" fill="#243650">需要时人工复核</text>
  <rect x="20" y="684" width="350" height="58" rx="18" fill="#195BB8"/><text x="195" y="720" text-anchor="middle" font-family="Arial,'Microsoft YaHei'" font-size="17" font-weight="700" fill="#FFFFFF">查询最新结果</text><rect x="20" y="754" width="350" height="50" rx="16" fill="#FFFFFF" stroke="#DDE4ED"/><text x="195" y="785" text-anchor="middle" font-family="Arial,'Microsoft YaHei'" font-size="15" font-weight="700" fill="#195BB8">打开微信客服</text>
</svg>
